<svg xmlns="http://www.w3.org/2000/svg" viewBox="0 0 96 96" width="512" height="512"><defs><mask id="syrupcut" maskUnits="userSpaceOnUse" x="-8" y="-8" width="112" height="112"><rect x="-8" y="-8" width="112" height="112" fill="#fff"></rect><g transform="translate(-2.21 -2.21) scale(0.9211)"><path d="M34 8 H62 Q72 8 72 16 Q72 24 62 24 H60 V33 Q60 38 55.5 38 Q51 38 51 33 V24 H43 V41 Q43 46 38.5 46 Q34 46 34 41 V24 Q24 24 24 16 Q24 8 34 8 Z" fill="#000" stroke="#000" stroke-width="12" stroke-linejoin="round"><animate attributeName="d" dur="5s" repeatCount="indefinite" calcMode="spline" keyTimes="0;0.3;0.45;0.7;0.85;1" keySplines="0.42 0 0.58 1;0.42 0 0.58 1;0.42 0 0.58 1;0.42 0 0.58 1;0.42 0 0.58 1" values="M34 8 H62 Q72 8 72 16 Q72 24 62 24 H60 V33 Q60 38 55.5 38 Q51 38 51 33 V24 H43 V41 Q43 46 38.5 46 Q34 46 34 41 V24 Q24 24 24 16 Q24 8 34 8 Z;M34 8 H62 Q72 8 72 16 Q72 24 62 24 H60 V33 Q60 38 55.5 38 Q51 38 51 33 V24 H43 V41 Q43 46 38.5 46 Q34 46 34 41 V24 Q24 24 24 16 Q24 8 34 8 Z;M34 8 H62 Q72 8 72 16 Q72 24 62 24 H60 V30.5 Q60 35.5 55.5 35.5 Q51 35.5 51 30.5 V24 H43 V45.5 Q43 50.5 38.5 50.5 Q34 50.5 34 45.5 V24 Q24 24 24 16 Q24 8 34 8 Z;M34 8 H62 Q72 8 72 16 Q72 24 62 24 H60 V36.5 Q60 41.5 55.5 41.5 Q51 41.5 51 36.5 V24 H43 V38.5 Q43 43.5 38.5 43.5 Q34 43.5 34 38.5 V24 Q24 24 24 16 Q24 8 34 8 Z;M34 8 H62 Q72 8 72 16 Q72 24 62 24 H60 V32.2 Q60 37.2 55.5 37.2 Q51 37.2 51 32.2 V24 H43 V41.8 Q43 46.8 38.5 46.8 Q34 46.8 34 41.8 V24 Q24 24 24 16 Q24 8 34 8 Z;M34 8 H62 Q72 8 72 16 Q72 24 62 24 H60 V33 Q60 38 55.5 38 Q51 38 51 33 V24 H43 V41 Q43 46 38.5 46 Q34 46 34 41 V24 Q24 24 24 16 Q24 8 34 8 Z"></animate></path><g transform="translate(38.5 54)"><circle cx="0" cy="0" r="4" fill="#000" stroke="#000" stroke-width="10"></circle><animateTransform attributeName="transform" type="translate" additive="sum" dur="5s" repeatCount="indefinite" calcMode="spline" keyTimes="0;0.14;0.3;0.58;1" keySplines="0.25 0.6 0.45 1;0 0 1 1;0.5 0 0.85 0.45;0 0 1 1" values="0 -4;0 0;0 0;0 62;0 62"></animateTransform><animateTransform attributeName="transform" type="scale" additive="sum" dur="5s" repeatCount="indefinite" calcMode="spline" keyTimes="0;0.14;1" keySplines="0.25 0.6 0.45 1;0 0 1 1" values="0.15;1;1"></animateTransform></g></g></mask></defs><g mask="url(#syrupcut)"><rect x="22" y="22" width="70" height="70" rx="18" fill="none" stroke="#5B2B0E" stroke-width="5"></rect><rect x="14.5" y="14.5" width="70" height="70" rx="18" fill="none" stroke="#5B2B0E" stroke-width="5"></rect><rect x="7" y="7" width="70" height="70" rx="18" fill="none" stroke="#5B2B0E" stroke-width="6"></rect><line x1="32.625" y1="10" x2="32.625" y2="74" stroke="#5B2B0E" stroke-width="4" stroke-linecap="round"></line><line x1="10" y1="32.625" x2="74" y2="32.625" stroke="#5B2B0E" stroke-width="4" stroke-linecap="round"></line><line x1="51.375" y1="10" x2="51.375" y2="74" stroke="#5B2B0E" stroke-width="4" stroke-linecap="round"></line><line x1="10" y1="51.375" x2="74" y2="51.375" stroke="#5B2B0E" stroke-width="4" stroke-linecap="round"></line></g><g transform="translate(-2.21 -2.21) scale(0.9211)"><clipPath id="dropclip"><rect x="26" y="42" width="25" height="65"></rect></clipPath><path d="M34 8 H62 Q72 8 72 16 Q72 24 62 24 H60 V33 Q60 38 55.5 38 Q51 38 51 33 V24 H43 V41 Q43 46 38.5 46 Q34 46 34 41 V24 Q24 24 24 16 Q24 8 34 8 Z" fill="none" stroke="#5B2B0E" stroke-width="5" stroke-linejoin="round"><animate attributeName="d" dur="5s" repeatCount="indefinite" calcMode="spline" keyTimes="0;0.3;0.45;0.7;0.85;1" keySplines="0.42 0 0.58 1;0.42 0 0.58 1;0.42 0 0.58 1;0.42 0 0.58 1;0.42 0 0.58 1" values="M34 8 H62 Q72 8 72 16 Q72 24 62 24 H60 V33 Q60 38 55.5 38 Q51 38 51 33 V24 H43 V41 Q43 46 38.5 46 Q34 46 34 41 V24 Q24 24 24 16 Q24 8 34 8 Z;M34 8 H62 Q72 8 72 16 Q72 24 62 24 H60 V33 Q60 38 55.5 38 Q51 38 51 33 V24 H43 V41 Q43 46 38.5 46 Q34 46 34 41 V24 Q24 24 24 16 Q24 8 34 8 Z;M34 8 H62 Q72 8 72 16 Q72 24 62 24 H60 V30.5 Q60 35.5 55.5 35.5 Q51 35.5 51 30.5 V24 H43 V45.5 Q43 50.5 38.5 50.5 Q34 50.5 34 45.5 V24 Q24 24 24 16 Q24 8 34 8 Z;M34 8 H62 Q72 8 72 16 Q72 24 62 24 H60 V36.5 Q60 41.5 55.5 41.5 Q51 41.5 51 36.5 V24 H43 V38.5 Q43 43.5 38.5 43.5 Q34 43.5 34 38.5 V24 Q24 24 24 16 Q24 8 34 8 Z;M34 8 H62 Q72 8 72 16 Q72 24 62 24 H60 V32.2 Q60 37.2 55.5 37.2 Q51 37.2 51 32.2 V24 H43 V41.8 Q43 46.8 38.5 46.8 Q34 46.8 34 41.8 V24 Q24 24 24 16 Q24 8 34 8 Z;M34 8 H62 Q72 8 72 16 Q72 24 62 24 H60 V33 Q60 38 55.5 38 Q51 38 51 33 V24 H43 V41 Q43 46 38.5 46 Q34 46 34 41 V24 Q24 24 24 16 Q24 8 34 8 Z"></animate></path><g clip-path="url(#dropclip)"><g transform="translate(38.5 54)"><circle cx="0" cy="0" r="4" fill="none" stroke="#5B2B0E" stroke-width="4"></circle><animateTransform attributeName="transform" type="translate" additive="sum" dur="5s" repeatCount="indefinite" calcMode="spline" keyTimes="0;0.14;0.3;0.58;1" keySplines="0.25 0.6 0.45 1;0 0 1 1;0.5 0 0.85 0.45;0 0 1 1" values="0 -4;0 0;0 0;0 62;0 62"></animateTransform><animateTransform attributeName="transform" type="scale" additive="sum" dur="5s" repeatCount="indefinite" calcMode="spline" keyTimes="0;0.14;1" keySplines="0.25 0.6 0.45 1;0 0 1 1" values="0.15;1;1"></animateTransform></g></g></g></svg>