<svg xmlns="http://www.w3.org/2000/svg" viewBox="0 0 96 96" width="512" height="512"><rect x="22" y="22" width="70" height="70" rx="18" fill="#D0902B" stroke="#5B2B0E" stroke-width="6"></rect><rect x="14.5" y="14.5" width="70" height="70" rx="18" fill="#E4A93D" stroke="#5B2B0E" stroke-width="6"></rect><rect x="7" y="7" width="70" height="70" rx="18" fill="#F5C752" stroke="#5B2B0E" stroke-width="6.5"></rect><rect x="16.75" y="16.75" width="13" height="13" rx="4.5" fill="#DE8127"></rect><rect x="35.5" y="16.75" width="13" height="13" rx="4.5" fill="#DE8127"></rect><rect x="54.25" y="16.75" width="13" height="13" rx="4.5" fill="#DE8127"></rect><rect x="16.75" y="35.5" width="13" height="13" rx="4.5" fill="#DE8127"></rect><rect x="35.5" y="35.5" width="13" height="13" rx="4.5" fill="#DE8127"></rect><rect x="54.25" y="35.5" width="13" height="13" rx="4.5" fill="#DE8127"></rect><rect x="16.75" y="54.25" width="13" height="13" rx="4.5" fill="#DE8127"></rect><rect x="35.5" y="54.25" width="13" height="13" rx="4.5" fill="#DE8127"></rect><rect x="54.25" y="54.25" width="13" height="13" rx="4.5" fill="#DE8127"></rect><g transform="translate(-2.21 -2.21) scale(0.9211)"><path d="M34 8 H62 Q72 8 72 16 Q72 24 62 24 H60 V33 Q60 38 55.5 38 Q51 38 51 33 V24 H43 V41 Q43 46 38.5 46 Q34 46 34 41 V24 Q24 24 24 16 Q24 8 34 8 Z" fill="#F08A1D" stroke="#5B2B0E" stroke-width="5" stroke-linejoin="round"></path><circle cx="38.5" cy="54" r="4" fill="#F08A1D" stroke="#5B2B0E" stroke-width="4"></circle></g></svg>