<svg xmlns="http://www.w3.org/2000/svg" viewBox="0 0 96 96" width="512" height="512"><defs><mask id="syrupcut" maskUnits="userSpaceOnUse" x="-8" y="-8" width="112" height="112"><rect x="-8" y="-8" width="112" height="112" fill="#fff"></rect><g transform="translate(-2.21 -2.21) scale(0.9211)"><path d="M34 8 H62 Q72 8 72 16 Q72 24 62 24 H60 V33 Q60 38 55.5 38 Q51 38 51 33 V24 H43 V41 Q43 46 38.5 46 Q34 46 34 41 V24 Q24 24 24 16 Q24 8 34 8 Z" fill="#000" stroke="#000" stroke-width="12" stroke-linejoin="round"></path><circle cx="38.5" cy="54" r="4" fill="#000" stroke="#000" stroke-width="10"></circle></g></mask></defs><g mask="url(#syrupcut)"><rect x="22" y="22" width="70" height="70" rx="18" fill="none" stroke="#5B2B0E" stroke-width="5"></rect><rect x="14.5" y="14.5" width="70" height="70" rx="18" fill="none" stroke="#5B2B0E" stroke-width="5"></rect><rect x="7" y="7" width="70" height="70" rx="18" fill="none" stroke="#5B2B0E" stroke-width="6"></rect><line x1="32.625" y1="10" x2="32.625" y2="74" stroke="#5B2B0E" stroke-width="4" stroke-linecap="round"></line><line x1="10" y1="32.625" x2="74" y2="32.625" stroke="#5B2B0E" stroke-width="4" stroke-linecap="round"></line><line x1="51.375" y1="10" x2="51.375" y2="74" stroke="#5B2B0E" stroke-width="4" stroke-linecap="round"></line><line x1="10" y1="51.375" x2="74" y2="51.375" stroke="#5B2B0E" stroke-width="4" stroke-linecap="round"></line></g><g transform="translate(-2.21 -2.21) scale(0.9211)"><path d="M34 8 H62 Q72 8 72 16 Q72 24 62 24 H60 V33 Q60 38 55.5 38 Q51 38 51 33 V24 H43 V41 Q43 46 38.5 46 Q34 46 34 41 V24 Q24 24 24 16 Q24 8 34 8 Z" fill="none" stroke="#5B2B0E" stroke-width="5" stroke-linejoin="round"></path><circle cx="38.5" cy="54" r="4" fill="none" stroke="#5B2B0E" stroke-width="4"></circle></g></svg>